<svg xmlns="http://www.w3.org/2000/svg" xmlns:xlink="http://www.w3.org/1999/xlink" viewBox="0 0 240 240"><defs><style>.a,.i{fill:none;}.b{fill:#549ad3;}.c{clip-path:url(#a);}.d{fill:#e4eff7;}.e,.g{fill:#8ca1c4;}.e{opacity:0.4;}.f{fill:#fff;}.g{opacity:0.15;}.h{fill:#333a48;}.i{stroke:#333a48;stroke-linecap:round;stroke-miterlimit:10;stroke-width:6px;}</style><clipPath id="a"><circle class="a" cx="120" cy="120" r="120"/></clipPath></defs><title>Reset account</title><circle class="b" cx="120" cy="120" r="120"/><g class="c"><path class="d" d="M115.25,53.56,28.17,118.88A7.89,7.89,0,0,0,25,125.21V232.08A7.91,7.91,0,0,0,32.92,240H207.08a7.91,7.91,0,0,0,7.92-7.92V125.21a7.89,7.89,0,0,0-3.17-6.33L124.75,53.56A7.92,7.92,0,0,0,115.25,53.56Z"/><path class="e" d="M27.4,119.65h0L106.49,179h0l4.12-3.09a15.81,15.81,0,0,1,19,0l4.12,3.09h0l79.08-59.32a7.22,7.22,0,0,0-.87-.78L124.86,53.56a7.92,7.92,0,0,0-9.5,0L28.27,118.87c-.91.69-1.39,1.31-.87.78Z"/><rect class="f" x="40.83" y="78.11" width="158.33" height="118.75" rx="5" ry="5"/><path class="d" d="M27.29,119.65A7.92,7.92,0,0,0,25,125.21V232.08A7.87,7.87,0,0,0,27.67,238l78.71-59Z"/><path class="d" d="M212.33,238a7.87,7.87,0,0,0,2.67-5.92V125.21a7.92,7.92,0,0,0-2.29-5.56L133.62,179Z"/><path class="g" d="M27.29,119.65A7.92,7.92,0,0,0,25,125.21V232.08A7.87,7.87,0,0,0,27.67,238l78.71-59Z"/><path class="g" d="M212.33,238a7.87,7.87,0,0,0,2.67-5.92V125.21a7.92,7.92,0,0,0-2.29-5.56L133.62,179Z"/><path class="d" d="M133.62,179h0l-4.12-3.09a15.81,15.81,0,0,0-19,0L106.38,179h0L27.67,238a7.88,7.88,0,0,0,5.25,2H207.08a7.88,7.88,0,0,0,5.25-2Z"/><rect class="h" x="99.75" y="135.4" width="40" height="25" rx="4" ry="4"/><path class="i" d="M130.86,135.4V120.74c0-5.06-5-9.16-11.11-9.16h0c-6.14,0-11.11,4.1-11.11,9.16v7.58"/></g></svg>