<svg xmlns="http://www.w3.org/2000/svg" viewBox="0 0 240 240"><defs><style>.a{fill:#549ad3;}.b{fill:#333a48;}.c{fill:#fff;}.d{fill:#ffcf6e;}.e{fill:#dce8ef;}</style></defs><title>More options</title><rect class="a" x="28.49" y="3.36" width="123.36" height="233.27" rx="16.82" ry="16.82"/><path class="b" d="M135,6.73a13.47,13.47,0,0,1,13.45,13.46V219.81A13.47,13.47,0,0,1,135,233.27H45.32a13.48,13.48,0,0,1-13.46-13.46V20.19A13.48,13.48,0,0,1,45.32,6.73H135M135,0H45.32A20.19,20.19,0,0,0,25.13,20.19V219.81A20.19,20.19,0,0,0,45.32,240H135a20.19,20.19,0,0,0,20.18-20.19V20.19A20.19,20.19,0,0,0,135,0Z"/><rect class="b" x="56.53" width="67.29" height="13.46" rx="3" ry="3"/><path class="c" d="M57.36,150.66l3.2-1,.74,2.28-3.18,1,2,2.76-2,1.44-2-2.76-1.95,2.76-2-1.44,2-2.76-3.18-1,.74-2.28,3.21,1v-3.34h2.42Z"/><path class="c" d="M69.47,150.66l3.2-1,.74,2.28-3.18,1,2,2.76-2,1.44-2-2.76-1.95,2.76-2-1.44,2-2.76-3.19-1,.74-2.28,3.21,1v-3.34h2.42Z"/><path class="c" d="M81.58,150.66l3.21-1,.74,2.28-3.19,1,2,2.76-2,1.44-2-2.76-1.95,2.76-2-1.44,2-2.76-3.19-1,.75-2.28,3.2,1v-3.34h2.42Z"/><path class="c" d="M101.32,150.66l3.2-1,.74,2.28-3.18,1,2,2.76-2,1.44-2-2.76-2,2.76-2-1.44,2-2.76-3.19-1,.74-2.28,3.21,1v-3.34h2.42Z"/><path class="c" d="M113.43,150.66l3.21-1,.74,2.28-3.18,1,2,2.76-2,1.44-2-2.76-2,2.76-2-1.44,2-2.76-3.19-1,.74-2.28,3.21,1v-3.34h2.42Z"/><path class="c" d="M125.54,150.66l3.21-1,.74,2.28-3.19,1,2,2.76-2,1.44-2-2.76-2,2.76-2-1.44,2-2.76-3.18-1,.74-2.28,3.2,1v-3.34h2.42Z"/><path class="c" d="M83.13,88h-9.2l-.67-2.94,10.33-12h3.49V84.67h2.53V88H87.08V92.1h-4Zm0-3.37V78.81l-5,5.86Z"/><path class="c" d="M92.13,89.6l2.5-3a6.58,6.58,0,0,0,4.49,2c1.94,0,3.15-1,3.15-2.61V86c0-1.61-1.37-2.55-3.34-2.55a8.06,8.06,0,0,0-3.15.7l-2.39-1.59.54-9.28H105.5V76.9h-8l-.22,3.25a9.65,9.65,0,0,1,2.48-.32c3.66,0,6.59,1.78,6.59,6v0c0,4-2.83,6.51-7.16,6.51A9.69,9.69,0,0,1,92.13,89.6Z"/><path class="c" d="M90.18,121.12l-.05-.11v.11a35.92,35.92,0,0,1-23-8.39,36.38,36.38,0,0,1-7-7.92A35.69,35.69,0,0,1,56,96.2a2.25,2.25,0,0,1,4.29-1.37,31,31,0,0,0,3.56,7.54A32.36,32.36,0,0,0,70,109.28a31.37,31.37,0,0,0,44.23-3.86,32.62,32.62,0,0,0,2.76-3.81v0a.35.35,0,0,1,.07-.12,31.37,31.37,0,0,0-6.69-40.28A30.74,30.74,0,0,0,98,54.82s0,0,0,0a2.24,2.24,0,0,1-1.32-1,2.15,2.15,0,0,1-.25-1.71,2.24,2.24,0,0,1,2.71-1.61,35.91,35.91,0,0,1,21.72,53.45s0,0,0,.06a32.91,32.91,0,0,1-3.1,4.31A35.85,35.85,0,0,1,90.18,121.12ZM89.7,53.83h0a2.24,2.24,0,0,1,0-4.48h0a2.24,2.24,0,1,1,0,4.48Z"/><path class="b" d="M2.12,169.21A2.13,2.13,0,0,0,0,171.34v62.41C0,237.2,3.1,240,6.92,240H35.55c3.82,0,6.92-2.8,6.92-6.25V171.34a2.13,2.13,0,0,0-2.12-2.13Zm23.36,60.27a3.89,3.89,0,1,1-3.89-4A3.94,3.94,0,0,1,25.48,229.48Z"/><path class="b" d="M7.79,148h26.9a0,0,0,0,1,0,0v18.24a3,3,0,0,1-3,3H10.79a3,3,0,0,1-3-3V148A0,0,0,0,1,7.79,148Z" transform="translate(42.47 317.19) rotate(180)"/><circle class="d" cx="20.76" cy="202.57" r="12.74"/><rect class="d" x="10.62" y="150.81" width="3.54" height="18.4" transform="translate(24.77 320.02) rotate(180)"/><rect class="d" x="16.28" y="153.64" width="3.54" height="15.57" transform="translate(36.1 322.86) rotate(180)"/><rect class="d" x="28.31" y="150.81" width="3.54" height="18.4" transform="translate(60.17 320.02) rotate(180)"/><rect class="d" x="22.65" y="153.64" width="3.54" height="15.57" transform="translate(48.84 322.86) rotate(180)"/><rect class="e" x="122.88" y="99.17" width="117.12" height="140.83" rx="5.41" ry="5.41"/><path class="b" d="M141.41,207.68v0c0-3.27,2.08-6,5.36-6s5.33,2.71,5.33,6v0c0,3.27-2.06,6-5.36,6S141.41,211,141.41,207.68Zm7.47,0v0c0-1.85-.85-3.19-2.14-3.19s-2.11,1.31-2.11,3.16v0c0,1.85.85,3.17,2.14,3.17S148.88,209.51,148.88,207.68Z"/><path class="b" d="M154.7,207.68v0c0-3.27,2.08-6,5.37-6s5.33,2.71,5.33,6v0c0,3.27-2.07,6-5.37,6S154.7,211,154.7,207.68Zm7.48,0v0c0-1.85-.86-3.19-2.15-3.19s-2.11,1.31-2.11,3.16v0c0,1.85.86,3.17,2.15,3.17S162.18,209.51,162.18,207.68Z"/><path class="b" d="M174.37,208.59a3.49,3.49,0,0,1-2.46.94,3.58,3.58,0,0,1-3.88-3.66v0c0-2.54,2-4.19,4.6-4.19a4.49,4.49,0,0,1,3.55,1.34,5.71,5.71,0,0,1,1.39,4.29v0c0,3.77-1.88,6.36-5.33,6.36a6.33,6.33,0,0,1-4.05-1.37l1.51-2.21a3.85,3.85,0,0,0,2.47.92C173.86,211,174.28,209.51,174.37,208.59Zm0-2.86v0a1.55,1.55,0,0,0-1.65-1.58,1.51,1.51,0,0,0-1.62,1.56v0a1.52,1.52,0,0,0,1.65,1.52A1.49,1.49,0,0,0,174.4,205.73Z"/><path class="b" d="M191.66,211.18H186l-.51-2.26,6-7.13h3.22v7h1.46v2.39h-1.46v2.25h-3.09Zm0-2.38v-3.33l-2.78,3.33Z"/><path class="b" d="M198.6,207.68v0c0-3.27,2.08-6,5.36-6s5.33,2.71,5.33,6v0c0,3.27-2.06,6-5.36,6S198.6,211,198.6,207.68Zm7.48,0v0c0-1.85-.86-3.19-2.15-3.19s-2.11,1.31-2.11,3.16v0c0,1.85.85,3.17,2.14,3.17S206.08,209.51,206.08,207.68Z"/><path class="b" d="M218.26,208.59a3.49,3.49,0,0,1-2.46.94,3.58,3.58,0,0,1-3.88-3.66v0c0-2.54,2-4.19,4.61-4.19a4.52,4.52,0,0,1,3.55,1.34,5.75,5.75,0,0,1,1.39,4.29v0c0,3.77-1.89,6.36-5.34,6.36a6.3,6.3,0,0,1-4-1.37l1.5-2.21a3.9,3.9,0,0,0,2.48.92C217.75,211,218.18,209.51,218.26,208.59Zm0-2.86v0a1.56,1.56,0,0,0-1.66-1.58,1.5,1.5,0,0,0-1.61,1.56v0a1.51,1.51,0,0,0,1.65,1.52A1.5,1.5,0,0,0,218.3,205.73Z"/><path class="b" d="M149,127.38h-5.35v-2.69h8.9v2.41l-5.1,9.15H144Z"/><path class="b" d="M154.23,134.64l1.83-2.14a4.33,4.33,0,0,0,2.81,1.25c1,0,1.68-.53,1.68-1.35v0c0-.85-.69-1.34-1.7-1.34a3.52,3.52,0,0,0-1.85.58l-1.9-1.08.33-5.84h7.73v2.64H158l-.1,1.75a4,4,0,0,1,1.85-.41c2.08,0,4,1.15,4,3.66v0c0,2.55-2,4.11-4.77,4.11A6.4,6.4,0,0,1,154.23,134.64Z"/><path class="b" d="M166.22,130.5v0c0-3.27,2.08-6,5.36-6s5.34,2.71,5.34,6v0c0,3.27-2.07,6-5.37,6S166.22,133.77,166.22,130.5Zm7.48,0v0c0-1.85-.86-3.19-2.15-3.19s-2.11,1.3-2.11,3.15v0c0,1.85.85,3.17,2.14,3.17S173.7,132.33,173.7,130.5Z"/><path class="b" d="M191,134h-5.61l-.51-2.26,6-7.13h3.22v7h1.47V134h-1.47v2.25H191Zm0-2.38v-3.33l-2.77,3.33Z"/><path class="b" d="M197.81,133.83l4.32-3.3c1.08-.84,1.51-1.38,1.51-2.08a1.16,1.16,0,0,0-1.31-1.19c-.77,0-1.38.47-2.29,1.51l-2.16-1.8a5.35,5.35,0,0,1,4.7-2.48c2.53,0,4.26,1.5,4.26,3.68v0c0,1.84-1,2.8-2.67,4l-2,1.39H207v2.61h-9.15Z"/><path class="b" d="M214.92,134H209.3l-.51-2.26,6-7.13H218v7h1.47V134H218v2.25h-3.08Zm0-2.38v-3.33l-2.78,3.33Z"/><path class="b" d="M146.11,173.84a5.73,5.73,0,0,1-1.42-4.32v0c0-3.6,1.75-6.34,5.37-6.34a5.93,5.93,0,0,1,3.84,1.28l-1.5,2.24a3.62,3.62,0,0,0-2.29-.87c-1.67,0-2.1,1.55-2.18,2.47a3.82,3.82,0,0,1,2.49-.89,3.56,3.56,0,0,1,3.81,3.6v0c0,2.58-2.06,4.16-4.59,4.16A4.66,4.66,0,0,1,146.11,173.84Zm5-2.66v0a1.5,1.5,0,0,0-1.65-1.48,1.44,1.44,0,0,0-1.6,1.47v0a1.5,1.5,0,0,0,1.63,1.5A1.48,1.48,0,0,0,151.13,171.18Z"/><path class="b" d="M156.73,172.52l4.32-3.3c1.08-.84,1.51-1.39,1.51-2.08a1.16,1.16,0,0,0-1.31-1.19c-.77,0-1.38.46-2.29,1.5l-2.16-1.8a5.35,5.35,0,0,1,4.7-2.47c2.53,0,4.26,1.5,4.26,3.68v0c0,1.85-1,2.81-2.67,4.05l-2,1.38h4.78v2.61h-9.15Z"/><path class="b" d="M168.06,173.33l1.83-2.15a4.31,4.31,0,0,0,2.81,1.26c1.05,0,1.68-.53,1.68-1.35v0c0-.84-.69-1.33-1.7-1.33a3.51,3.51,0,0,0-1.85.57l-1.9-1.07.33-5.84H177V166h-5.2l-.1,1.75a4,4,0,0,1,1.85-.42c2.08,0,4,1.16,4,3.67v0c0,2.56-2,4.11-4.77,4.11A6.43,6.43,0,0,1,168.06,173.33Z"/><path class="b" d="M185.73,172.52l4.32-3.3c1.08-.84,1.51-1.39,1.51-2.08a1.16,1.16,0,0,0-1.31-1.19c-.77,0-1.38.46-2.29,1.5l-2.16-1.8a5.35,5.35,0,0,1,4.7-2.47c2.53,0,4.26,1.5,4.26,3.68v0c0,1.85-1,2.81-2.67,4.05l-2,1.38h4.78v2.61h-9.15Z"/><path class="b" d="M203.78,170.09a3.46,3.46,0,0,1-2.46.95,3.59,3.59,0,0,1-3.88-3.67v0c0-2.54,2-4.2,4.6-4.2a4.52,4.52,0,0,1,3.55,1.34,5.71,5.71,0,0,1,1.39,4.29v0c0,3.76-1.88,6.35-5.33,6.35a6.27,6.27,0,0,1-4.05-1.37l1.51-2.21a3.81,3.81,0,0,0,2.47.93C203.27,172.51,203.69,171,203.78,170.09Zm0-2.85v0a1.55,1.55,0,0,0-1.65-1.59,1.51,1.51,0,0,0-1.62,1.57v0a1.51,1.51,0,0,0,1.65,1.52A1.49,1.49,0,0,0,203.81,167.24Z"/><path class="b" d="M208.9,173.12l2-2a3.75,3.75,0,0,0,2.76,1.32c.9,0,1.47-.46,1.47-1.17v0c0-.75-.66-1.19-1.89-1.19h-1.35l-.45-1.67,2.65-2.39h-4.41v-2.59H218v2.27L215.29,168c1.65.36,3,1.27,3,3.25v0c0,2.34-1.89,3.84-4.46,3.84A6.35,6.35,0,0,1,208.9,173.12Z"/></svg>