<svg xmlns="http://www.w3.org/2000/svg" viewBox="0 0 240 240"><defs><style>.a{isolation:isolate;}.b{fill:#dce8ef;}.c{fill:#e25a3b;}.d{fill:#8ca1c4;mix-blend-mode:multiply;}.e{fill:#aabdd3;}.f{fill:#af4934;}.g{fill:#333a48;}.h{fill:#ffcf6e;}</style></defs><title>Recovery codes</title><g class="a"><path class="b" d="M188,105.75a49.86,49.86,0,0,0-1.89-9.12A50.78,50.78,0,0,1,188,105.75Z"/><path class="b" d="M185.3,94.11a48.64,48.64,0,0,0-2.36-5.43A50.05,50.05,0,0,1,185.3,94.11Z"/><path class="b" d="M182.27,87.38c-.18-.33-.37-.65-.56-1C181.9,86.73,182.09,87.05,182.27,87.38Z"/><path class="b" d="M186.13,96.57c-.22-.73-.47-1.46-.73-2.19C185.66,95.11,185.91,95.84,186.13,96.57Z"/><path class="b" d="M180.6,84.54c.06.11.13.21.2.32l-.19-.32Z"/><path class="b" d="M164.92,154A50.53,50.53,0,0,1,121,158.73l0,0L100.61,184a94.39,94.39,0,0,0,90.64-8.66l-25.87-20.86A1.93,1.93,0,0,1,164.92,154Z"/><path class="b" d="M188.39,103.87c0,1.26-.06,2.51-.15,3.75,0-.41-.09-.8-.13-1.21a50.44,50.44,0,0,1-2.73,22.13,1.8,1.8,0,0,1,.64.34l28.89,23.29a94,94,0,0,0,17.3-47.78c.17,2.27.28,4.57.28,6.89a94.35,94.35,0,0,0-23.28-62l-26,32.28A50,50,0,0,1,188.39,103.87Z"/><path class="b" d="M138.14,53.62a50,50,0,0,1,21.46,4.81l24-29.75A94.51,94.51,0,0,0,76.05,40.22l30.5,24.58A50,50,0,0,1,138.14,53.62Z"/><path class="b" d="M73.06,165.77l22.29-27.66.06,0A50.63,50.63,0,0,1,88,106.85c-.07-1-.11-2-.11-3A50.75,50.75,0,0,1,89.08,93L55.39,65.82a93.93,93.93,0,0,0-11.72,45.45c0-2.32.11-4.61.28-6.88A94.18,94.18,0,0,0,73.06,165.77Z"/><path class="c" d="M209.33,46,186.84,27.83a2,2,0,0,0-2.81.3l-.45.55-24,29.75a50.43,50.43,0,0,1,23.58,23.16l26-32.28.43-.53A2,2,0,0,0,209.33,46Z"/><path class="c" d="M180.55,84.44h0l.06.09h0Z"/><path class="c" d="M76.05,40.22l-.47-.38a2,2,0,0,0-2.81.31L54.64,62.64a2,2,0,0,0,.3,2.81l.45.37L89.08,93A50.23,50.23,0,0,1,106.55,64.8Z"/><path class="c" d="M186,128.88a1.8,1.8,0,0,0-.64-.34,2,2,0,0,0-2.17.64l-18.14,22.5a2,2,0,0,0-.15,2.28,1.93,1.93,0,0,0,.46.53l25.87,20.86a95.1,95.1,0,0,0,23.66-23.18Z"/><path class="c" d="M120.77,156.91l-23.57-19a1.31,1.31,0,0,0-1.79.15l-.06,0L73.06,165.77A94.59,94.59,0,0,0,100.61,184L121,158.76l0,0A1.32,1.32,0,0,0,120.77,156.91Z"/><path class="c" d="M66.91,173.43v0l0,0v0Z"/><path class="d" d="M188.11,106.41c0-.22,0-.44-.07-.66C188.07,106,188.09,106.19,188.11,106.41Z"/><path class="d" d="M181.71,86.4c-.29-.52-.6-1-.91-1.54C181.11,85.37,181.42,85.88,181.71,86.4Z"/><path class="d" d="M186.15,96.63l0-.06Z"/><path class="d" d="M185.4,94.38l-.1-.27C185.34,94.2,185.37,94.29,185.4,94.38Z"/><path class="d" d="M182.94,88.68c-.22-.44-.44-.87-.67-1.3C182.5,87.81,182.72,88.24,182.94,88.68Z"/><path class="e" d="M180.61,84.54l.19.32c.31.51.62,1,.91,1.54.19.33.38.65.56,1s.45.86.67,1.3a48.64,48.64,0,0,1,2.36,5.43l.1.27c.26.73.51,1.46.73,2.19l0,.06a49.86,49.86,0,0,1,1.89,9.12c0,.22.05.44.07.66,0,.41.1.8.13,1.21.09-1.24.15-2.49.15-3.75a50,50,0,0,0-5.21-22.28l-2,2.45A2,2,0,0,1,180.61,84.54Z"/><path class="e" d="M90.81,94.21a2,2,0,0,1-.61-.33L89.08,93a50.75,50.75,0,0,0-1.19,10.89c0,1,0,2,.11,3,0,.26,0,.51,0,.77a50.17,50.17,0,0,1,2.87-13.37Z"/><path class="e" d="M138.14,53.62A50,50,0,0,0,106.55,64.8l4.3,3.47a2.09,2.09,0,0,1,.47.56l0,0A49.77,49.77,0,0,1,121.49,64l.92-.31c.3-.1.61-.21.92-.3.73-.23,1.47-.43,2.21-.62l.11,0c.81-.21,1.63-.38,2.46-.55l1-.2c.68-.13,1.36-.23,2.05-.33l1.57-.19.7-.06c1-.1,2.06-.17,3.1-.2h.28a50.42,50.42,0,0,1,18.38,3h0a1.94,1.94,0,0,1,.37-.73l4-5A50,50,0,0,0,138.14,53.62Z"/><path class="f" d="M159.6,58.43l-4,5a1.94,1.94,0,0,0-.37.73h0a2,2,0,0,0,.68,2.07l22.49,18.14a2,2,0,0,0,2.21.2l-.06-.09h0l.06.1a2,2,0,0,0,.6-.5l2-2.45A50.43,50.43,0,0,0,159.6,58.43Z"/><path class="f" d="M111.35,68.87l0,0a2.09,2.09,0,0,0-.47-.56l-4.3-3.47A50.23,50.23,0,0,0,89.08,93l1.12.9a2,2,0,0,0,.61.33l.1,0a2,2,0,0,0,2.1-.67l.14-.18a.73.73,0,0,0,.09-.08l17.74-22a.53.53,0,0,1,.06-.1l.11-.15A2,2,0,0,0,111.35,68.87Z"/><path class="d" d="M92.21,194.42a.68.68,0,0,0,.12-.12l.15-.19h0Z"/><path class="e" d="M44,104.39c-.17,2.27-.28,4.56-.28,6.88,0,0,0,.1,0,.16s0,.09,0,.14c0,1.33,0,2.65.09,4l0,.65c.06,1.19.14,2.38.24,3.56,0,.36.07.71.11,1.07.1,1.05.22,2.1.36,3.14.06.48.13,1,.2,1.42.14.93.29,1.85.45,2.77.1.55.21,1.1.32,1.66.14.71.29,1.42.45,2.12s.32,1.4.49,2.09.36,1.42.55,2.12.33,1.2.5,1.79c.25.86.51,1.72.79,2.57.09.29.18.59.28.88.39,1.16.8,2.32,1.24,3.47l.14.39a94,94,0,0,0,17,28.2l0,0,6.16-7.64A94.18,94.18,0,0,1,44,104.39Z"/><path class="e" d="M232.49,111.28c0-2.32-.11-4.62-.28-6.89a94,94,0,0,1-17.3,47.78l5.9,4.76h0l0,0h0q1.39-2.52,2.62-5.12v0c.66-1.39,1.29-2.81,1.88-4.24s1.16-2.89,1.68-4.35c0-.06,0-.13.07-.2.33-.94.65-1.88,1-2.83v-.06c.31-1,.61-2,.88-2.93s.54-2,.78-3c0-.13.07-.27.11-.41.47-2,.89-3.94,1.24-5.93l.06-.37c.16-.95.31-1.89.45-2.85a1.1,1.1,0,0,1,0-.18c.15-1,.28-2.1.39-3.16v0c.11-1,.19-2.08.27-3.12,0-.07,0-.14,0-.21.15-2.11.22-4.21.22-6.32,0-.07,0-.14,0-.2S232.49,111.33,232.49,111.28Z"/><path class="e" d="M200.15,182.53l-8.9-7.18A94.39,94.39,0,0,1,100.61,184l-8.14,10.1h0a93.75,93.75,0,0,0,16,7h0q1.33.44,2.67.84l.19.05c.92.28,1.84.53,2.77.78s1.86.47,2.8.68l.3.07q1.2.27,2.4.51l.58.11c.81.15,1.62.3,2.43.43l.32.06c.93.15,1.87.28,2.82.41l.33,0c.81.1,1.63.19,2.45.27l.63.07c.82.07,1.64.14,2.46.19l.34,0c1,.06,1.9.1,2.86.14h.46l2.32,0h.71c1.27,0,2.52,0,3.78-.09l.91-.05c1.12,0,2.24-.14,3.35-.23l1.35-.13c1-.1,1.93-.21,2.89-.34l1.74-.25q1.27-.19,2.52-.42l2-.38,1.55-.33c.93-.21,1.86-.42,2.79-.66.5-.12,1-.25,1.48-.39.89-.24,1.78-.49,2.66-.76.64-.19,1.27-.38,1.9-.59s1.34-.44,2-.67c.85-.3,1.7-.6,2.53-.92l1.05-.41c1.12-.44,2.23-.9,3.33-1.39l.2-.08a93.92,93.92,0,0,0,23.82-15.2Z"/><path class="d" d="M220.83,156.91l0,0h0v0Z"/><path class="f" d="M221.29,157.31l0,0a1.45,1.45,0,0,0-.18-.17l-.23-.19v0h0l-5.9-4.76a95.1,95.1,0,0,1-23.66,23.18l8.9,7.18,0,0,.45.37a2,2,0,0,0,2.81-.3l.11-.14.12-.12,17.73-22a1.7,1.7,0,0,0,.1-.14l.08-.1A2,2,0,0,0,221.29,157.31Z"/><path class="f" d="M73.06,165.77l-6.16,7.64v0l0,0v0l-.81,1a1.31,1.31,0,0,0,.2,1.84l23.57,19a1.3,1.3,0,0,0,1.84-.2l.54-.67.26-.31,8.14-10.1A94.59,94.59,0,0,1,73.06,165.77Z"/><rect class="g" x="7.5" y="91.6" width="123.41" height="148.4" rx="5.41" ry="5.41"/><path class="h" d="M27,206v0c0-3.44,2.19-6.33,5.65-6.33s5.62,2.85,5.62,6.3v0c0,3.45-2.17,6.33-5.65,6.33S27,209.39,27,206Zm7.88,0v0c0-1.95-.9-3.36-2.26-3.36s-2.23,1.38-2.23,3.33v0c0,2,.91,3.34,2.26,3.34S34.9,207.88,34.9,206Z"/><path class="h" d="M41,206v0c0-3.44,2.19-6.33,5.65-6.33s5.62,2.85,5.62,6.3v0c0,3.45-2.17,6.33-5.65,6.33S41,209.39,41,206Zm7.88,0v0c0-1.95-.91-3.36-2.26-3.36s-2.23,1.38-2.23,3.33v0c0,2,.91,3.34,2.26,3.34S48.91,207.88,48.91,206Z"/><path class="h" d="M61.75,206.9a3.65,3.65,0,0,1-2.59,1A3.77,3.77,0,0,1,55.07,204v0c0-2.68,2.07-4.42,4.86-4.42A4.79,4.79,0,0,1,63.67,201a6.1,6.1,0,0,1,1.46,4.52v0c0,4-2,6.69-5.62,6.69a6.6,6.6,0,0,1-4.26-1.44l1.58-2.33a4.05,4.05,0,0,0,2.61,1C61.21,209.44,61.67,207.88,61.75,206.9Zm0-3v0a1.64,1.64,0,0,0-1.74-1.67,1.6,1.6,0,0,0-1.71,1.65v0a1.59,1.59,0,0,0,1.74,1.6A1.58,1.58,0,0,0,61.79,203.89Z"/><path class="h" d="M80,209.63H74.06l-.54-2.38,6.31-7.51h3.39v7.37h1.55v2.52H83.22V212H80Zm0-2.5v-3.51l-2.92,3.51Z"/><path class="h" d="M87.28,206v0c0-3.44,2.19-6.33,5.65-6.33s5.62,2.85,5.62,6.3v0c0,3.45-2.17,6.33-5.65,6.33S87.28,209.39,87.28,206Zm7.88,0v0c0-1.95-.9-3.36-2.26-3.36s-2.23,1.38-2.23,3.33v0c0,2,.91,3.34,2.26,3.34S95.16,207.88,95.16,206Z"/><path class="h" d="M108,206.9a3.64,3.64,0,0,1-2.59,1,3.77,3.77,0,0,1-4.08-3.86v0c0-2.68,2.07-4.42,4.85-4.42a4.77,4.77,0,0,1,3.74,1.41c.89.89,1.46,2.28,1.46,4.52v0c0,4-2,6.69-5.62,6.69a6.6,6.6,0,0,1-4.26-1.44l1.58-2.33a4.05,4.05,0,0,0,2.61,1C107.47,209.44,107.92,207.88,108,206.9Zm0-3v0a1.64,1.64,0,0,0-1.74-1.67,1.59,1.59,0,0,0-1.7,1.65v0a1.72,1.72,0,0,0,3.44,0Z"/><path class="h" d="M35.07,121.33H29.43V118.5H38.8V121l-5.37,9.63H29.71Z"/><path class="h" d="M40.53,129l1.93-2.27a4.57,4.57,0,0,0,3,1.33c1.11,0,1.77-.56,1.77-1.43v0c0-.88-.73-1.4-1.79-1.4a3.69,3.69,0,0,0-1.95.61l-2-1.14.35-6.15h8.14v2.78H44.46l-.1,1.84a4.32,4.32,0,0,1,2-.43c2.19,0,4.17,1.22,4.17,3.86v0c0,2.7-2.07,4.34-5,4.34A6.81,6.81,0,0,1,40.53,129Z"/><path class="h" d="M53.16,124.62v0c0-3.44,2.2-6.33,5.66-6.33s5.62,2.86,5.62,6.3v0c0,3.45-2.18,6.34-5.66,6.34S53.16,128.06,53.16,124.62Zm7.88,0v0c0-1.94-.9-3.35-2.26-3.35s-2.22,1.37-2.22,3.32v0c0,2,.9,3.34,2.26,3.34S61,126.55,61,124.62Z"/><path class="h" d="M79.28,128.31H73.37l-.54-2.39,6.31-7.51h3.4v7.38h1.54v2.52H82.54v2.36H79.28Zm0-2.51v-3.51l-2.92,3.51Z"/><path class="h" d="M86.45,128.13,91,124.65c1.13-.88,1.58-1.46,1.58-2.19a1.22,1.22,0,0,0-1.37-1.25c-.82,0-1.46.49-2.42,1.58l-2.28-1.89a5.66,5.66,0,0,1,5-2.61c2.66,0,4.49,1.58,4.49,3.88v0c0,2-1,3-2.82,4.26l-2.09,1.46h5v2.75H86.45Z"/><path class="h" d="M104.48,128.31H98.57L98,125.92l6.31-7.51h3.39v7.38h1.55v2.52h-1.55v2.36h-3.25Zm0-2.51v-3.51l-2.92,3.51Z"/><path class="h" d="M32,170.29c-.91-.91-1.5-2.28-1.5-4.56v0c0-3.79,1.85-6.68,5.65-6.68a6.3,6.3,0,0,1,4.06,1.34l-1.58,2.36a3.88,3.88,0,0,0-2.42-.92c-1.76,0-2.21,1.64-2.3,2.61a4,4,0,0,1,2.63-.94,3.75,3.75,0,0,1,4,3.79v0c0,2.71-2.18,4.38-4.84,4.38A4.93,4.93,0,0,1,32,170.29Zm5.29-2.8v0a1.59,1.59,0,0,0-1.74-1.56,1.53,1.53,0,0,0-1.69,1.55v0a1.58,1.58,0,0,0,1.72,1.58A1.56,1.56,0,0,0,37.27,167.49Z"/><path class="h" d="M43.17,168.9l4.56-3.48c1.13-.89,1.58-1.46,1.58-2.19A1.23,1.23,0,0,0,47.93,162c-.81,0-1.46.49-2.41,1.59l-2.28-1.9a5.65,5.65,0,0,1,5-2.61c2.66,0,4.48,1.58,4.48,3.88v0c0,1.94-1,2.95-2.81,4.26l-2.09,1.46h5v2.75H43.17Z"/><path class="h" d="M55.1,169.75,57,167.49a4.56,4.56,0,0,0,3,1.32c1.12,0,1.78-.56,1.78-1.43v0c0-.89-.73-1.41-1.79-1.41a3.66,3.66,0,0,0-1.95.61l-2-1.13.35-6.16h8.14V162H59l-.11,1.85a4.32,4.32,0,0,1,2-.44c2.19,0,4.17,1.22,4.17,3.86v0c0,2.7-2.07,4.33-5,4.33A6.83,6.83,0,0,1,55.1,169.75Z"/><path class="h" d="M73.72,168.9l4.56-3.48c1.13-.89,1.59-1.46,1.59-2.19A1.23,1.23,0,0,0,78.49,162c-.82,0-1.46.49-2.42,1.59l-2.28-1.9a5.66,5.66,0,0,1,5-2.61c2.66,0,4.49,1.58,4.49,3.88v0c0,1.94-1,2.95-2.82,4.26l-2.09,1.46h5v2.75H73.72Z"/><path class="h" d="M92.74,166.34a3.65,3.65,0,0,1-2.59,1,3.78,3.78,0,0,1-4.09-3.86v0c0-2.68,2.07-4.42,4.86-4.42a4.72,4.72,0,0,1,3.73,1.41c.89.88,1.47,2.28,1.47,4.52v0c0,4-2,6.7-5.62,6.7a6.6,6.6,0,0,1-4.26-1.44l1.58-2.33a4.05,4.05,0,0,0,2.61,1C92.2,168.88,92.65,167.31,92.74,166.34Zm0-3v0A1.64,1.64,0,0,0,91,161.63a1.6,1.6,0,0,0-1.71,1.65v0a1.59,1.59,0,0,0,1.74,1.6A1.57,1.57,0,0,0,92.78,163.33Z"/><path class="h" d="M98.14,169.52l2.14-2.12a3.94,3.94,0,0,0,2.9,1.39c1,0,1.55-.48,1.55-1.23v0c0-.78-.69-1.25-2-1.25h-1.43l-.47-1.76,2.78-2.52H99v-2.73h8.79v2.4l-2.91,2.51c1.74.38,3.15,1.34,3.15,3.42v0c0,2.47-2,4.05-4.7,4.05A6.63,6.63,0,0,1,98.14,169.52Z"/></g></svg>