<svg xmlns="http://www.w3.org/2000/svg" xmlns:xlink="http://www.w3.org/1999/xlink" viewBox="0 0 240 240"><defs><style>.a{fill:none;}.b{fill:#d6e1ea;}.c{clip-path:url(#a);}.d{fill:#549ad3;}.e{fill:#333a48;}.f{fill:#fff;}</style><clipPath id="a"><circle class="a" cx="120" cy="120" r="120"/></clipPath></defs><title>TOTP</title><circle class="b" cx="120" cy="120" r="120"/><g class="c"><rect class="d" x="58.32" y="54.41" width="123.36" height="233.27" rx="16.82" ry="16.82"/><path class="e" d="M164.86,57.77a13.48,13.48,0,0,1,13.46,13.46V270.86a13.47,13.47,0,0,1-13.46,13.45H75.14a13.47,13.47,0,0,1-13.46-13.45V71.23A13.48,13.48,0,0,1,75.14,57.77h89.72m0-6.73H75.14A20.19,20.19,0,0,0,55,71.23V270.86A20.19,20.19,0,0,0,75.14,291h89.72a20.19,20.19,0,0,0,20.19-20.18V71.23A20.19,20.19,0,0,0,164.86,51Z"/><rect class="e" x="86.36" y="51.04" width="67.29" height="13.46" rx="3" ry="3"/><path class="f" d="M87.18,201.7l3.21-1,.74,2.28L88,204l2,2.75-2,1.44-2-2.76-2,2.76-2-1.44L84,204l-3.19-1,.74-2.28,3.21,1v-3.34h2.42Z"/><path class="f" d="M99.3,201.7l3.2-1,.74,2.28-3.18,1,2,2.75-2,1.44-2-2.76-2,2.76-2-1.44,2-2.75-3.18-1,.74-2.28,3.2,1v-3.34H99.3Z"/><path class="f" d="M111.4,201.7l3.21-1,.74,2.28-3.18,1,2,2.75-2,1.44-2-2.76-2,2.76-2-1.44,2-2.75L105,203l.74-2.28,3.2,1v-3.34h2.42Z"/><path class="f" d="M131.14,201.7l3.21-1,.74,2.28-3.18,1,2,2.75-2,1.44-2-2.76-2,2.76-2-1.44,2-2.75-3.18-1,.74-2.28,3.2,1v-3.34h2.42Z"/><path class="f" d="M143.26,201.7l3.2-1,.74,2.28L144,204l2,2.75-2,1.44-2-2.76-2,2.76-2-1.44,2-2.75-3.18-1,.74-2.28,3.21,1v-3.34h2.42Z"/><path class="f" d="M155.37,201.7l3.2-1,.74,2.28-3.18,1,2,2.75-2,1.44-2-2.76-2,2.76-2-1.44,2-2.75L149,203l.74-2.28,3.2,1v-3.34h2.43Z"/><path class="f" d="M113,139.08h-9.2l-.68-2.93,10.33-12h3.5v11.54h2.53v3.36h-2.53v4.06h-4Zm0-3.36v-5.87l-5,5.87Z"/><path class="f" d="M122,140.64l2.5-3a6.62,6.62,0,0,0,4.49,2c1.94,0,3.15-.94,3.15-2.61V137c0-1.61-1.37-2.55-3.33-2.55a8,8,0,0,0-3.15.7l-2.4-1.59.54-9.28h11.57v3.63h-8l-.21,3.26a9.06,9.06,0,0,1,2.47-.33c3.66,0,6.59,1.78,6.59,6v0c0,4-2.82,6.51-7.15,6.51A9.67,9.67,0,0,1,122,140.64Z"/><path class="f" d="M120,172.16l0-.11v.11a36,36,0,0,1-23-8.39,36.83,36.83,0,0,1-7-7.91,35.36,35.36,0,0,1-4.1-8.62,2.25,2.25,0,1,1,4.28-1.36,30.77,30.77,0,0,0,3.57,7.53A31.54,31.54,0,0,0,120,167.68a31.63,31.63,0,0,0,26.82-15v0a.72.72,0,0,1,.07-.11,31.39,31.39,0,0,0-6.68-40.29,31,31,0,0,0-12.36-6.37s0,0,0,0a2.24,2.24,0,0,1,1.15-4.33A35.89,35.89,0,0,1,150.64,155s0,0,0,.07a34.41,34.41,0,0,1-3.09,4.3A35.84,35.84,0,0,1,120,172.16Zm-.47-67.29h0a2.22,2.22,0,0,1-2.25-2.19,2.25,2.25,0,0,1,2.2-2.29h.05a2.24,2.24,0,0,1,0,4.48Z"/></g></svg>