<svg xmlns="http://www.w3.org/2000/svg" viewBox="0 4 50 54">
    <defs>
        <style>
            .left-shield { fill: #549ad3; }
            .right-shield { fill: #333a48; }
            .tick { fill: #fff; }
        </style>
    </defs>

    <path class="left-shield" d="M31.66,4.1,17.81,11.19a2.39,2.39,0,0,0-1.3,2.13v6.36A29.73,29.73,0,0,0,32.75,46.16h0C47.25,38.77,49,33.15,49,19.68V13.32a2.39,2.39,0,0,0-1.3-2.13L33.85,4.1A2.42,2.42,0,0,0,31.66,4.1Z"/>
    <path class="right-shield" d="M16.15,4.1,2.3,11.19A2.39,2.39,0,0,0,1,13.32v6.36A29.72,29.72,0,0,0,17.25,46.16h0A29.73,29.73,0,0,0,33.49,19.68V13.32a2.39,2.39,0,0,0-1.3-2.13L18.34,4.1A2.42,2.42,0,0,0,16.15,4.1Z"/>
    <polygon class="tick" points="12.2 28.73 15.21 31.75 18.22 28.73 21.23 25.72 26.75 20.21 23.73 17.2 18.22 22.71 15.21 25.72 11.48 21.99 8.47 25 12.2 28.73"/>
</svg>
