<svg xmlns="http://www.w3.org/2000/svg" viewBox="0 0 240 240"><defs><style>.a{fill:#549ad3;}.b{fill:#333a48;}.c{fill:#fff;}.d{fill:#ffcf6e;}.e{fill:#dce8ef;}</style></defs><title>More options</title><rect class="a" x="28.49" y="3.36" width="123.36" height="233.27" rx="16.82" ry="16.82"/><path class="b" d="M135,6.73a13.47,13.47,0,0,1,13.45,13.46V219.81A13.47,13.47,0,0,1,135,233.27H45.32a13.48,13.48,0,0,1-13.46-13.46V20.19A13.48,13.48,0,0,1,45.32,6.73H135M135,0H45.32A20.19,20.19,0,0,0,25.13,20.19V219.81A20.19,20.19,0,0,0,45.32,240H135a20.19,20.19,0,0,0,20.18-20.19V20.19A20.19,20.19,0,0,0,135,0Z"/><rect class="b" x="56.53" width="67.29" height="13.46" rx="3" ry="3"/><path class="c" d="M57.36,150.66l3.2-1,.74,2.28-3.18,1,2,2.76-2,1.44-2-2.76-1.95,2.76-2-1.44,2-2.76-3.18-1,.74-2.28,3.21,1v-3.34h2.42Z"/><path class="c" d="M69.47,150.66l3.2-1,.74,2.28-3.18,1,2,2.76-2,1.44-2-2.76-1.95,2.76-2-1.44,2-2.76-3.19-1,.74-2.28,3.21,1v-3.34h2.42Z"/><path class="c" d="M81.58,150.66l3.21-1,.74,2.28-3.19,1,2,2.76-2,1.44-2-2.76-1.95,2.76-2-1.44,2-2.76-3.19-1,.75-2.28,3.2,1v-3.34h2.42Z"/><path class="c" d="M101.32,150.66l3.2-1,.74,2.28-3.18,1,2,2.76-2,1.44-2-2.76-2,2.76-2-1.44,2-2.76-3.19-1,.74-2.28,3.21,1v-3.34h2.42Z"/><path class="c" d="M113.43,150.66l3.21-1,.74,2.28-3.18,1,2,2.76-2,1.44-2-2.76-2,2.76-2-1.44,2-2.76-3.19-1,.74-2.28,3.21,1v-3.34h2.42Z"/><path class="c" d="M125.54,150.66l3.21-1,.74,2.28-3.19,1,2,2.76-2,1.44-2-2.76-2,2.76-2-1.44,2-2.76-3.18-1,.74-2.28,3.2,1v-3.34h2.42Z"/><path class="c" d="M83.13,88h-9.2l-.67-2.94,10.33-12h3.49V84.67h2.53V88H87.08V92.1h-4Zm0-3.37V78.81l-5,5.86Z"/><path class="c" d="M92.13,89.6l2.5-3a6.58,6.58,0,0,0,4.49,2c1.94,0,3.15-1,3.15-2.61V86c0-1.61-1.37-2.55-3.34-2.55a8.06,8.06,0,0,0-3.15.7l-2.39-1.59.54-9.28H105.5V76.9h-8l-.22,3.25a9.65,9.65,0,0,1,2.48-.32c3.66,0,6.59,1.78,6.59,6v0c0,4-2.83,6.51-7.16,6.51A9.69,9.69,0,0,1,92.13,89.6Z"/><path class="c" d="M90.18,121.12l-.05-.11v.11a35.92,35.92,0,0,1-23-8.39,36.38,36.38,0,0,1-7-7.92A35.69,35.69,0,0,1,56,96.2a2.25,2.25,0,0,1,4.29-1.37,31,31,0,0,0,3.56,7.54A32.36,32.36,0,0,0,70,109.28a31.37,31.37,0,0,0,44.23-3.86,32.62,32.62,0,0,0,2.76-3.81v0a.35.35,0,0,1,.07-.12,31.37,31.37,0,0,0-6.69-40.28A30.74,30.74,0,0,0,98,54.82s0,0,0,0a2.24,2.24,0,0,1-1.32-1,2.15,2.15,0,0,1-.25-1.71,2.24,2.24,0,0,1,2.71-1.61,35.91,35.91,0,0,1,21.72,53.45s0,0,0,.06a32.91,32.91,0,0,1-3.1,4.31A35.85,35.85,0,0,1,90.18,121.12ZM89.7,53.83h0a2.24,2.24,0,0,1,0-4.48h0a2.24,2.24,0,1,1,0,4.48Z"/><path class="b" d="M2.12,169.21A2.13,2.13,0,0,0,0,171.34v62.41C0,237.2,3.1,240,6.92,240H35.55c3.82,0,6.92-2.8,6.92-6.25V171.34a2.13,2.13,0,0,0-2.12-2.13Zm23.36,60.27a3.89,3.89,0,1,1-3.89-4A3.94,3.94,0,0,1,25.48,229.48Z"/><path class="b" d="M7.79,148h26.9a0,0,0,0,1,0,0v18.24a3,3,0,0,1-3,3H10.79a3,3,0,0,1-3-3V148A0,0,0,0,1,7.79,148Z" transform="translate(42.47 317.19) rotate(180)"/><circle class="d" cx="20.76" cy="202.57" r="12.74"/><rect class="d" x="10.62" y="150.81" width="3.54" height="18.4" transform="translate(24.77 320.02) rotate(180)"/><rect class="d" x="16.28" y="153.64" width="3.54" height="15.57" transform="translate(36.1 322.86) rotate(180)"/><rect class="d" x="28.31" y="150.81" width="3.54" height="18.4" transform="translate(60.17 320.02) rotate(180)"/><rect class="d" x="22.65" y="153.64" width="3.54" height="15.57" transform="translate(48.84 322.86) rotate(180)"/><rect class="e" x="116.59" y="91.6" width="123.41" height="148.4" rx="5.41" ry="5.41"/><path class="b" d="M142.67,130.31l3.48-1.12.81,2.48-3.46,1.12,2.14,3-2.14,1.56-2.17-3-2.12,3-2.16-1.56,2.16-3-3.46-1.12.81-2.48,3.48,1.12v-3.63h2.63Z"/><path class="b" d="M155.82,130.31l3.48-1.12.81,2.48-3.46,1.12,2.14,3-2.14,1.56-2.17-3-2.12,3-2.17-1.56,2.17-3-3.46-1.12.81-2.48,3.48,1.12v-3.63h2.63Z"/><path class="b" d="M169,130.31l3.48-1.12.81,2.48-3.46,1.12,2.14,3-2.14,1.56-2.17-3-2.12,3-2.17-1.56,2.17-3-3.46-1.12.81-2.48,3.48,1.12v-3.63H169Z"/><path class="b" d="M190.4,130.31l3.48-1.12.8,2.48-3.45,1.12,2.14,3-2.14,1.56-2.17-3-2.12,3-2.17-1.56,2.17-3-3.46-1.12.81-2.48,3.48,1.12v-3.63h2.63Z"/><path class="b" d="M203.55,130.31l3.48-1.12.8,2.48-3.45,1.12,2.14,3-2.14,1.56-2.17-3-2.12,3-2.17-1.56,2.17-3-3.46-1.12.8-2.48,3.49,1.12v-3.63h2.63Z"/><path class="b" d="M216.7,130.31l3.48-1.12.8,2.48-3.46,1.12,2.15,3-2.15,1.56-2.16-3-2.12,3-2.17-1.56,2.17-3-3.46-1.12.8-2.48,3.49,1.12v-3.63h2.63Z"/><path class="b" d="M142.67,164.1l3.48-1.12.81,2.48-3.46,1.12,2.14,3-2.14,1.56-2.17-3-2.12,3-2.16-1.56,2.16-3-3.46-1.12.81-2.48L140,164.1v-3.63h2.63Z"/><path class="b" d="M155.82,164.1,159.3,163l.81,2.48-3.46,1.12,2.14,3-2.14,1.56-2.17-3-2.12,3-2.17-1.56,2.17-3-3.46-1.12.81-2.48,3.48,1.12v-3.63h2.63Z"/><path class="b" d="M169,164.1l3.48-1.12.81,2.48-3.46,1.12,2.14,3-2.14,1.56-2.17-3-2.12,3-2.17-1.56,2.17-3-3.46-1.12.81-2.48,3.48,1.12v-3.63H169Z"/><path class="b" d="M190.4,164.1l3.48-1.12.8,2.48-3.45,1.12,2.14,3-2.14,1.56-2.17-3-2.12,3-2.17-1.56,2.17-3-3.46-1.12.81-2.48,3.48,1.12v-3.63h2.63Z"/><path class="b" d="M203.55,164.1,207,163l.8,2.48-3.45,1.12,2.14,3-2.14,1.56-2.17-3-2.12,3-2.17-1.56,2.17-3-3.46-1.12.8-2.48,3.49,1.12v-3.63h2.63Z"/><path class="b" d="M216.7,164.1l3.48-1.12.8,2.48-3.46,1.12,2.15,3-2.15,1.56-2.16-3-2.12,3-2.17-1.56,2.17-3-3.46-1.12.8-2.48,3.49,1.12v-3.63h2.63Z"/><path class="b" d="M142.67,197.89l3.48-1.13.81,2.49-3.46,1.12,2.14,3-2.14,1.56-2.17-3-2.12,3-2.16-1.56,2.16-3-3.46-1.12.81-2.49,3.48,1.13v-3.63h2.63Z"/><path class="b" d="M155.82,197.89l3.48-1.13.81,2.49-3.46,1.12,2.14,3-2.14,1.56-2.17-3-2.12,3-2.17-1.56,2.17-3-3.46-1.12.81-2.49,3.48,1.13v-3.63h2.63Z"/><path class="b" d="M169,197.89l3.48-1.13.81,2.49-3.46,1.12,2.14,3-2.14,1.56-2.17-3-2.12,3-2.17-1.56,2.17-3-3.46-1.12.81-2.49,3.48,1.13v-3.63H169Z"/><path class="b" d="M190.4,197.89l3.48-1.13.8,2.49-3.45,1.12,2.14,3-2.14,1.56-2.17-3-2.12,3-2.17-1.56,2.17-3-3.46-1.12.81-2.49,3.48,1.13v-3.63h2.63Z"/><path class="b" d="M203.55,197.89l3.48-1.13.8,2.49-3.45,1.12,2.14,3-2.14,1.56-2.17-3-2.12,3-2.17-1.56,2.17-3-3.46-1.12.8-2.49,3.49,1.13v-3.63h2.63Z"/><path class="b" d="M216.7,197.89l3.48-1.13.8,2.49-3.46,1.12,2.15,3-2.15,1.56-2.16-3-2.12,3-2.17-1.56,2.17-3-3.46-1.12.8-2.49,3.49,1.13v-3.63h2.63Z"/></svg>