<svg xmlns="http://www.w3.org/2000/svg" viewBox="0 0 240 240">
    <defs>
        <style>
            .a{isolation:isolate;}.b{fill:#dce8ef;}.c{fill:#e25a3b;}.d{fill:#8ca1c4;mix-blend-mode:multiply;}.e{fill:#aabdd3;}.f{fill:#af4934;}.g{fill:#333a48;}.h{fill:#ffcf6e;}
            @media (prefers-color-scheme: dark) {
                .g {
                    fill: #dce8ef;
                }
                .h {
                    fill: #333333;
                }
            }
        </style>
    </defs>
    <title>Recovery codes</title>
    <g class="a">
        <path class="b" d="M188,105.75a49.86,49.86,0,0,0-1.89-9.12A50.78,50.78,0,0,1,188,105.75Z"/>
        <path class="b" d="M185.3,94.11a48.64,48.64,0,0,0-2.36-5.43A50.05,50.05,0,0,1,185.3,94.11Z"/>
        <path class="b" d="M182.27,87.38c-.18-.33-.37-.65-.56-1C181.9,86.73,182.09,87.05,182.27,87.38Z"/>
        <path class="b" d="M186.13,96.57c-.22-.73-.47-1.46-.73-2.19C185.66,95.11,185.91,95.84,186.13,96.57Z"/>
        <path class="b" d="M180.6,84.54c.06.11.13.21.2.32l-.19-.32Z"/>
        <path class="b"
              d="M164.92,154A50.53,50.53,0,0,1,121,158.73l0,0L100.61,184a94.39,94.39,0,0,0,90.64-8.66l-25.87-20.86A1.93,1.93,0,0,1,164.92,154Z"/>
        <path class="b"
              d="M188.39,103.87c0,1.26-.06,2.51-.15,3.75,0-.41-.09-.8-.13-1.21a50.44,50.44,0,0,1-2.73,22.13,1.8,1.8,0,0,1,.64.34l28.89,23.29a94,94,0,0,0,17.3-47.78c.17,2.27.28,4.57.28,6.89a94.35,94.35,0,0,0-23.28-62l-26,32.28A50,50,0,0,1,188.39,103.87Z"/>
        <path class="b"
              d="M138.14,53.62a50,50,0,0,1,21.46,4.81l24-29.75A94.51,94.51,0,0,0,76.05,40.22l30.5,24.58A50,50,0,0,1,138.14,53.62Z"/>
        <path class="b"
              d="M73.06,165.77l22.29-27.66.06,0A50.63,50.63,0,0,1,88,106.85c-.07-1-.11-2-.11-3A50.75,50.75,0,0,1,89.08,93L55.39,65.82a93.93,93.93,0,0,0-11.72,45.45c0-2.32.11-4.61.28-6.88A94.18,94.18,0,0,0,73.06,165.77Z"/>
        <path class="c"
              d="M209.33,46,186.84,27.83a2,2,0,0,0-2.81.3l-.45.55-24,29.75a50.43,50.43,0,0,1,23.58,23.16l26-32.28.43-.53A2,2,0,0,0,209.33,46Z"/>
        <path class="c" d="M180.55,84.44h0l.06.09h0Z"/>
        <path class="c"
              d="M76.05,40.22l-.47-.38a2,2,0,0,0-2.81.31L54.64,62.64a2,2,0,0,0,.3,2.81l.45.37L89.08,93A50.23,50.23,0,0,1,106.55,64.8Z"/>
        <path class="c"
              d="M186,128.88a1.8,1.8,0,0,0-.64-.34,2,2,0,0,0-2.17.64l-18.14,22.5a2,2,0,0,0-.15,2.28,1.93,1.93,0,0,0,.46.53l25.87,20.86a95.1,95.1,0,0,0,23.66-23.18Z"/>
        <path class="c"
              d="M120.77,156.91l-23.57-19a1.31,1.31,0,0,0-1.79.15l-.06,0L73.06,165.77A94.59,94.59,0,0,0,100.61,184L121,158.76l0,0A1.32,1.32,0,0,0,120.77,156.91Z"/>
        <path class="c" d="M66.91,173.43v0l0,0v0Z"/>
        <path class="d" d="M188.11,106.41c0-.22,0-.44-.07-.66C188.07,106,188.09,106.19,188.11,106.41Z"/>
        <path class="d" d="M181.71,86.4c-.29-.52-.6-1-.91-1.54C181.11,85.37,181.42,85.88,181.71,86.4Z"/>
        <path class="d" d="M186.15,96.63l0-.06Z"/>
        <path class="d" d="M185.4,94.38l-.1-.27C185.34,94.2,185.37,94.29,185.4,94.38Z"/>
        <path class="d" d="M182.94,88.68c-.22-.44-.44-.87-.67-1.3C182.5,87.81,182.72,88.24,182.94,88.68Z"/>
        <path class="e"
              d="M180.61,84.54l.19.32c.31.51.62,1,.91,1.54.19.33.38.65.56,1s.45.86.67,1.3a48.64,48.64,0,0,1,2.36,5.43l.1.27c.26.73.51,1.46.73,2.19l0,.06a49.86,49.86,0,0,1,1.89,9.12c0,.22.05.44.07.66,0,.41.1.8.13,1.21.09-1.24.15-2.49.15-3.75a50,50,0,0,0-5.21-22.28l-2,2.45A2,2,0,0,1,180.61,84.54Z"/>
        <path class="e"
              d="M90.81,94.21a2,2,0,0,1-.61-.33L89.08,93a50.75,50.75,0,0,0-1.19,10.89c0,1,0,2,.11,3,0,.26,0,.51,0,.77a50.17,50.17,0,0,1,2.87-13.37Z"/>
        <path class="e"
              d="M138.14,53.62A50,50,0,0,0,106.55,64.8l4.3,3.47a2.09,2.09,0,0,1,.47.56l0,0A49.77,49.77,0,0,1,121.49,64l.92-.31c.3-.1.61-.21.92-.3.73-.23,1.47-.43,2.21-.62l.11,0c.81-.21,1.63-.38,2.46-.55l1-.2c.68-.13,1.36-.23,2.05-.33l1.57-.19.7-.06c1-.1,2.06-.17,3.1-.2h.28a50.42,50.42,0,0,1,18.38,3h0a1.94,1.94,0,0,1,.37-.73l4-5A50,50,0,0,0,138.14,53.62Z"/>
        <path class="f"
              d="M159.6,58.43l-4,5a1.94,1.94,0,0,0-.37.73h0a2,2,0,0,0,.68,2.07l22.49,18.14a2,2,0,0,0,2.21.2l-.06-.09h0l.06.1a2,2,0,0,0,.6-.5l2-2.45A50.43,50.43,0,0,0,159.6,58.43Z"/>
        <path class="f"
              d="M111.35,68.87l0,0a2.09,2.09,0,0,0-.47-.56l-4.3-3.47A50.23,50.23,0,0,0,89.08,93l1.12.9a2,2,0,0,0,.61.33l.1,0a2,2,0,0,0,2.1-.67l.14-.18a.73.73,0,0,0,.09-.08l17.74-22a.53.53,0,0,1,.06-.1l.11-.15A2,2,0,0,0,111.35,68.87Z"/>
        <path class="d" d="M92.21,194.42a.68.68,0,0,0,.12-.12l.15-.19h0Z"/>
        <path class="e"
              d="M44,104.39c-.17,2.27-.28,4.56-.28,6.88,0,0,0,.1,0,.16s0,.09,0,.14c0,1.33,0,2.65.09,4l0,.65c.06,1.19.14,2.38.24,3.56,0,.36.07.71.11,1.07.1,1.05.22,2.1.36,3.14.06.48.13,1,.2,1.42.14.93.29,1.85.45,2.77.1.55.21,1.1.32,1.66.14.71.29,1.42.45,2.12s.32,1.4.49,2.09.36,1.42.55,2.12.33,1.2.5,1.79c.25.86.51,1.72.79,2.57.09.29.18.59.28.88.39,1.16.8,2.32,1.24,3.47l.14.39a94,94,0,0,0,17,28.2l0,0,6.16-7.64A94.18,94.18,0,0,1,44,104.39Z"/>
        <path class="e"
              d="M232.49,111.28c0-2.32-.11-4.62-.28-6.89a94,94,0,0,1-17.3,47.78l5.9,4.76h0l0,0h0q1.39-2.52,2.62-5.12v0c.66-1.39,1.29-2.81,1.88-4.24s1.16-2.89,1.68-4.35c0-.06,0-.13.07-.2.33-.94.65-1.88,1-2.83v-.06c.31-1,.61-2,.88-2.93s.54-2,.78-3c0-.13.07-.27.11-.41.47-2,.89-3.94,1.24-5.93l.06-.37c.16-.95.31-1.89.45-2.85a1.1,1.1,0,0,1,0-.18c.15-1,.28-2.1.39-3.16v0c.11-1,.19-2.08.27-3.12,0-.07,0-.14,0-.21.15-2.11.22-4.21.22-6.32,0-.07,0-.14,0-.2S232.49,111.33,232.49,111.28Z"/>
        <path class="e"
              d="M200.15,182.53l-8.9-7.18A94.39,94.39,0,0,1,100.61,184l-8.14,10.1h0a93.75,93.75,0,0,0,16,7h0q1.33.44,2.67.84l.19.05c.92.28,1.84.53,2.77.78s1.86.47,2.8.68l.3.07q1.2.27,2.4.51l.58.11c.81.15,1.62.3,2.43.43l.32.06c.93.15,1.87.28,2.82.41l.33,0c.81.1,1.63.19,2.45.27l.63.07c.82.07,1.64.14,2.46.19l.34,0c1,.06,1.9.1,2.86.14h.46l2.32,0h.71c1.27,0,2.52,0,3.78-.09l.91-.05c1.12,0,2.24-.14,3.35-.23l1.35-.13c1-.1,1.93-.21,2.89-.34l1.74-.25q1.27-.19,2.52-.42l2-.38,1.55-.33c.93-.21,1.86-.42,2.79-.66.5-.12,1-.25,1.48-.39.89-.24,1.78-.49,2.66-.76.64-.19,1.27-.38,1.9-.59s1.34-.44,2-.67c.85-.3,1.7-.6,2.53-.92l1.05-.41c1.12-.44,2.23-.9,3.33-1.39l.2-.08a93.92,93.92,0,0,0,23.82-15.2Z"/>
        <path class="d" d="M220.83,156.91l0,0h0v0Z"/>
        <path class="f"
              d="M221.29,157.31l0,0a1.45,1.45,0,0,0-.18-.17l-.23-.19v0h0l-5.9-4.76a95.1,95.1,0,0,1-23.66,23.18l8.9,7.18,0,0,.45.37a2,2,0,0,0,2.81-.3l.11-.14.12-.12,17.73-22a1.7,1.7,0,0,0,.1-.14l.08-.1A2,2,0,0,0,221.29,157.31Z"/>
        <path class="f"
              d="M73.06,165.77l-6.16,7.64v0l0,0v0l-.81,1a1.31,1.31,0,0,0,.2,1.84l23.57,19a1.3,1.3,0,0,0,1.84-.2l.54-.67.26-.31,8.14-10.1A94.59,94.59,0,0,1,73.06,165.77Z"/>
        <rect class="g" x="7.5" y="91.6" width="123.41" height="148.4" rx="5.41" ry="5.41"/>
        <path class="h"
              d="M33.58,130.3l3.48-1.12.81,2.48-3.46,1.12,2.14,3-2.14,1.56-2.17-3-2.12,3L28,135.78l2.17-3-3.46-1.12.81-2.48L31,130.3v-3.63h2.63Z"/>
        <path class="h"
              d="M46.73,130.3l3.48-1.12.81,2.48-3.46,1.12,2.14,3-2.14,1.56-2.17-3-2.12,3-2.17-1.56,2.17-3-3.46-1.12.81-2.48,3.48,1.12v-3.63h2.63Z"/>
        <path class="h"
              d="M59.88,130.3l3.48-1.12.81,2.48-3.46,1.12,2.14,3-2.14,1.56-2.17-3-2.12,3-2.17-1.56,2.17-3L53,131.66l.81-2.48,3.48,1.12v-3.63h2.63Z"/>
        <path class="h"
              d="M81.31,130.3l3.48-1.12.8,2.48-3.45,1.12,2.14,3-2.14,1.56-2.17-3-2.12,3-2.17-1.56,2.17-3-3.46-1.12.81-2.48,3.48,1.12v-3.63h2.63Z"/>
        <path class="h"
              d="M94.46,130.3l3.48-1.12.8,2.48-3.46,1.12,2.15,3-2.15,1.56-2.16-3-2.12,3-2.17-1.56,2.17-3-3.46-1.12.8-2.48,3.49,1.12v-3.63h2.63Z"/>
        <path class="h"
              d="M107.61,130.3l3.48-1.12.8,2.48-3.46,1.12,2.15,3-2.15,1.56-2.16-3-2.12,3L102,135.78l2.17-3-3.46-1.12.8-2.48L105,130.3v-3.63h2.63Z"/>
        <path class="h"
              d="M33.58,164.09,37.06,163l.81,2.48-3.46,1.12,2.14,3-2.14,1.55-2.17-3-2.12,3L28,169.57l2.17-3-3.46-1.12.81-2.48L31,164.09v-3.63h2.63Z"/>
        <path class="h"
              d="M46.73,164.09,50.21,163l.81,2.48-3.46,1.12,2.14,3-2.14,1.55-2.17-3-2.12,3-2.17-1.55,2.17-3-3.46-1.12.81-2.48,3.48,1.12v-3.63h2.63Z"/>
        <path class="h"
              d="M59.88,164.09,63.36,163l.81,2.48-3.46,1.12,2.14,3-2.14,1.55-2.17-3-2.12,3-2.17-1.55,2.17-3L53,165.45l.81-2.48,3.48,1.12v-3.63h2.63Z"/>
        <path class="h"
              d="M81.31,164.09,84.79,163l.8,2.48-3.45,1.12,2.14,3-2.14,1.55-2.17-3-2.12,3-2.17-1.55,2.17-3-3.46-1.12L75.2,163l3.48,1.12v-3.63h2.63Z"/>
        <path class="h"
              d="M94.46,164.09,97.94,163l.8,2.48-3.46,1.12,2.15,3-2.15,1.55-2.16-3-2.12,3-2.17-1.55,2.17-3-3.46-1.12.8-2.48,3.49,1.12v-3.63h2.63Z"/>
        <path class="h"
              d="M107.61,164.09l3.48-1.12.8,2.48-3.46,1.12,2.15,3-2.15,1.55-2.16-3-2.12,3L102,169.57l2.17-3-3.46-1.12.8-2.48,3.49,1.12v-3.63h2.63Z"/>
        <path class="h"
              d="M33.58,197.88l3.48-1.13.81,2.49-3.46,1.12,2.14,3-2.14,1.56-2.17-3-2.12,3L28,203.35l2.17-3-3.46-1.12.81-2.49L31,197.88v-3.63h2.63Z"/>
        <path class="h"
              d="M46.73,197.88l3.48-1.13.81,2.49-3.46,1.12,2.14,3-2.14,1.56-2.17-3-2.12,3-2.17-1.56,2.17-3-3.46-1.12.81-2.49,3.48,1.13v-3.63h2.63Z"/>
        <path class="h"
              d="M59.88,197.88l3.48-1.13.81,2.49-3.46,1.12,2.14,3-2.14,1.56-2.17-3-2.12,3-2.17-1.56,2.17-3L53,199.24l.81-2.49,3.48,1.13v-3.63h2.63Z"/>
        <path class="h"
              d="M81.31,197.88l3.48-1.13.8,2.49-3.45,1.12,2.14,3-2.14,1.56-2.17-3-2.12,3-2.17-1.56,2.17-3-3.46-1.12.81-2.49,3.48,1.13v-3.63h2.63Z"/>
        <path class="h"
              d="M94.46,197.88l3.48-1.13.8,2.49-3.46,1.12,2.15,3-2.15,1.56-2.16-3-2.12,3-2.17-1.56,2.17-3-3.46-1.12.8-2.49,3.49,1.13v-3.63h2.63Z"/>
        <path class="h"
              d="M107.61,197.88l3.48-1.13.8,2.49-3.46,1.12,2.15,3-2.15,1.56-2.16-3-2.12,3L102,203.35l2.17-3-3.46-1.12.8-2.49,3.49,1.13v-3.63h2.63Z"/>
    </g>
</svg>
